<svg width="228" height="194" viewBox="0 0 228 194" fill="none" xmlns="http://www.w3.org/2000/svg">
<g opacity="0.6">
<circle cx="9.45555" cy="2.45556" r="2.45556" fill="#38357E"/>
<circle cx="9.45555" cy="29.4668" r="2.45556" fill="#38357E"/>
<circle cx="9.45555" cy="2.45556" r="2.45556" fill="#38357E"/>
<circle cx="22.9612" cy="15.9612" r="2.45556" fill="#38357E"/>
<circle cx="36.4667" cy="2.45556" r="2.45556" fill="#38357E"/>
<circle cx="36.4667" cy="29.4668" r="2.45556" fill="#38357E"/>
<circle cx="9.45555" cy="29.4668" r="2.45556" fill="#38357E"/>
<circle cx="36.4667" cy="2.45556" r="2.45556" fill="#38357E"/>
<circle cx="49.9723" cy="15.9612" r="2.45556" fill="#38357E"/>
<circle cx="63.4778" cy="2.45556" r="2.45556" fill="#38357E"/>
<circle cx="63.4778" cy="29.4668" r="2.45556" fill="#38357E"/>
<circle cx="36.4667" cy="29.4668" r="2.45556" fill="#38357E"/>
<circle cx="63.4778" cy="2.45556" r="2.45556" fill="#38357E"/>
<circle cx="76.9834" cy="15.9612" r="2.45556" fill="#38357E"/>
<circle cx="90.4889" cy="2.45556" r="2.45556" fill="#38357E"/>
<circle cx="90.4889" cy="29.4668" r="2.45556" fill="#38357E"/>
<circle cx="63.4778" cy="29.4668" r="2.45556" fill="#38357E"/>
<circle cx="90.4889" cy="2.45556" r="2.45556" fill="#38357E"/>
<circle cx="103.994" cy="15.9612" r="2.45556" fill="#38357E"/>
<circle cx="117.5" cy="2.45556" r="2.45556" fill="#38357E"/>
<circle cx="117.5" cy="29.4668" r="2.45556" fill="#38357E"/>
<circle cx="90.4889" cy="29.4668" r="2.45556" fill="#38357E"/>
<circle cx="117.5" cy="2.45556" r="2.45556" fill="#38357E"/>
<circle cx="131.006" cy="15.9612" r="2.45556" fill="#38357E"/>
<circle cx="144.511" cy="2.45556" r="2.45556" fill="#38357E"/>
<circle cx="144.511" cy="29.4668" r="2.45556" fill="#38357E"/>
<circle cx="117.5" cy="29.4668" r="2.45556" fill="#38357E"/>
<circle cx="144.511" cy="2.45556" r="2.45556" fill="#38357E"/>
<circle cx="158.017" cy="15.9612" r="2.45556" fill="#38357E"/>
<circle cx="171.522" cy="2.45556" r="2.45556" fill="#38357E"/>
<circle cx="171.522" cy="29.4668" r="2.45556" fill="#38357E"/>
<circle cx="144.511" cy="29.4668" r="2.45556" fill="#38357E"/>
<circle cx="171.522" cy="2.45556" r="2.45556" fill="#38357E"/>
<circle cx="185.028" cy="15.9612" r="2.45556" fill="#38357E"/>
<circle cx="198.533" cy="2.45556" r="2.45556" fill="#38357E"/>
<circle cx="198.533" cy="29.4668" r="2.45556" fill="#38357E"/>
<circle cx="171.522" cy="29.4668" r="2.45556" fill="#38357E"/>
<circle cx="198.533" cy="2.45556" r="2.45556" fill="#38357E"/>
<circle cx="212.039" cy="15.9612" r="2.45556" fill="#38357E"/>
<circle cx="225.544" cy="2.45556" r="2.45556" fill="#38357E"/>
<circle cx="225.544" cy="29.4668" r="2.45556" fill="#38357E"/>
<circle cx="198.533" cy="29.4668" r="2.45556" fill="#38357E"/>
<circle cx="9.45555" cy="29.4668" r="2.45556" fill="#38357E"/>
<circle cx="9.45555" cy="56.478" r="2.45556" fill="#38357E"/>
<circle cx="9.45555" cy="29.4668" r="2.45556" fill="#38357E"/>
<circle cx="22.9612" cy="42.9722" r="2.45556" fill="#38357E"/>
<circle cx="36.4667" cy="29.4665" r="2.45556" fill="#38357E"/>
<circle cx="36.4667" cy="56.4778" r="2.45556" fill="#38357E"/>
<circle cx="9.45555" cy="56.4778" r="2.45556" fill="#38357E"/>
<circle cx="36.4667" cy="29.4668" r="2.45556" fill="#38357E"/>
<circle cx="49.9723" cy="42.9722" r="2.45556" fill="#38357E"/>
<circle cx="63.4778" cy="29.4665" r="2.45556" fill="#38357E"/>
<circle cx="63.4778" cy="56.4778" r="2.45556" fill="#38357E"/>
<circle cx="36.4667" cy="56.4778" r="2.45556" fill="#38357E"/>
<circle cx="63.4778" cy="29.4668" r="2.45556" fill="#38357E"/>
<circle cx="76.9834" cy="42.9722" r="2.45556" fill="#38357E"/>
<circle cx="90.4889" cy="29.4665" r="2.45556" fill="#38357E"/>
<circle cx="90.4889" cy="56.4778" r="2.45556" fill="#38357E"/>
<circle cx="63.4778" cy="56.4778" r="2.45556" fill="#38357E"/>
<circle cx="90.4889" cy="29.4668" r="2.45556" fill="#38357E"/>
<circle cx="103.994" cy="42.9722" r="2.45556" fill="#38357E"/>
<circle cx="117.5" cy="29.4665" r="2.45556" fill="#38357E"/>
<circle cx="117.5" cy="56.4778" r="2.45556" fill="#38357E"/>
<circle cx="90.4889" cy="56.4778" r="2.45556" fill="#38357E"/>
<circle cx="117.5" cy="29.4668" r="2.45556" fill="#38357E"/>
<circle cx="131.006" cy="42.9722" r="2.45556" fill="#38357E"/>
<circle cx="144.511" cy="29.4665" r="2.45556" fill="#38357E"/>
<circle cx="144.511" cy="56.4778" r="2.45556" fill="#38357E"/>
<circle cx="117.5" cy="56.4778" r="2.45556" fill="#38357E"/>
<circle cx="144.511" cy="29.4668" r="2.45556" fill="#38357E"/>
<circle cx="158.017" cy="42.9722" r="2.45556" fill="#38357E"/>
<circle cx="171.522" cy="29.4665" r="2.45556" fill="#38357E"/>
<circle cx="171.522" cy="56.4778" r="2.45556" fill="#38357E"/>
<circle cx="144.511" cy="56.4778" r="2.45556" fill="#38357E"/>
<circle cx="171.522" cy="29.4668" r="2.45556" fill="#38357E"/>
<circle cx="185.028" cy="42.9722" r="2.45556" fill="#38357E"/>
<circle cx="198.533" cy="29.4665" r="2.45556" fill="#38357E"/>
<circle cx="198.533" cy="56.4778" r="2.45556" fill="#38357E"/>
<circle cx="171.522" cy="56.4778" r="2.45556" fill="#38357E"/>
<circle cx="198.533" cy="29.4668" r="2.45556" fill="#38357E"/>
<circle cx="212.039" cy="42.9722" r="2.45556" fill="#38357E"/>
<circle cx="225.544" cy="29.4665" r="2.45556" fill="#38357E"/>
<circle cx="225.544" cy="56.4778" r="2.45556" fill="#38357E"/>
<circle cx="198.533" cy="56.4778" r="2.45556" fill="#38357E"/>
<circle cx="9.45555" cy="56.4778" r="2.45556" fill="#38357E"/>
<circle cx="9.45555" cy="83.489" r="2.45556" fill="#38357E"/>
<circle cx="9.45568" cy="56.478" r="2.45556" fill="#38357E"/>
<circle cx="22.9612" cy="69.9834" r="2.45556" fill="#38357E"/>
<circle cx="36.4667" cy="56.4778" r="2.45556" fill="#38357E"/>
<circle cx="36.4667" cy="83.489" r="2.45556" fill="#38357E"/>
<circle cx="9.45555" cy="83.489" r="2.45556" fill="#38357E"/>
<circle cx="36.4667" cy="56.478" r="2.45556" fill="#38357E"/>
<circle cx="49.9723" cy="69.9834" r="2.45556" fill="#38357E"/>
<circle cx="63.4778" cy="56.4778" r="2.45556" fill="#38357E"/>
<circle cx="63.4778" cy="83.489" r="2.45556" fill="#38357E"/>
<circle cx="36.4667" cy="83.489" r="2.45556" fill="#38357E"/>
<circle cx="63.4779" cy="56.478" r="2.45556" fill="#38357E"/>
<circle cx="76.9834" cy="69.9834" r="2.45556" fill="#38357E"/>
<circle cx="90.4889" cy="56.4778" r="2.45556" fill="#38357E"/>
<circle cx="90.4889" cy="83.489" r="2.45556" fill="#38357E"/>
<circle cx="63.4778" cy="83.489" r="2.45556" fill="#38357E"/>
<circle cx="90.4889" cy="56.478" r="2.45556" fill="#38357E"/>
<circle cx="103.994" cy="69.9834" r="2.45556" fill="#38357E"/>
<circle cx="117.5" cy="56.4778" r="2.45556" fill="#38357E"/>
<circle cx="117.5" cy="83.489" r="2.45556" fill="#38357E"/>
<circle cx="90.4889" cy="83.489" r="2.45556" fill="#38357E"/>
<circle cx="117.5" cy="56.478" r="2.45556" fill="#38357E"/>
<circle cx="131.006" cy="69.9834" r="2.45556" fill="#38357E"/>
<circle cx="144.511" cy="56.4778" r="2.45556" fill="#38357E"/>
<circle cx="144.511" cy="83.489" r="2.45556" fill="#38357E"/>
<circle cx="117.5" cy="83.489" r="2.45556" fill="#38357E"/>
<circle cx="144.511" cy="56.478" r="2.45556" fill="#38357E"/>
<circle cx="158.017" cy="69.9834" r="2.45556" fill="#38357E"/>
<circle cx="171.522" cy="56.4778" r="2.45556" fill="#38357E"/>
<circle cx="171.522" cy="83.489" r="2.45556" fill="#38357E"/>
<circle cx="144.511" cy="83.489" r="2.45556" fill="#38357E"/>
<circle cx="171.522" cy="56.478" r="2.45556" fill="#38357E"/>
<circle cx="185.028" cy="69.9834" r="2.45556" fill="#38357E"/>
<circle cx="198.533" cy="56.4778" r="2.45556" fill="#38357E"/>
<circle cx="198.533" cy="83.489" r="2.45556" fill="#38357E"/>
<circle cx="171.522" cy="83.489" r="2.45556" fill="#38357E"/>
<circle cx="198.533" cy="56.478" r="2.45556" fill="#38357E"/>
<circle cx="212.039" cy="69.9834" r="2.45556" fill="#38357E"/>
<circle cx="225.544" cy="56.4778" r="2.45556" fill="#38357E"/>
<circle cx="225.544" cy="83.489" r="2.45556" fill="#38357E"/>
<circle cx="198.533" cy="83.489" r="2.45556" fill="#38357E"/>
<circle cx="9.45555" cy="83.489" r="2.45556" fill="#38357E"/>
<circle cx="9.45555" cy="110.5" r="2.45556" fill="#38357E"/>
<circle cx="9.45555" cy="83.489" r="2.45556" fill="#38357E"/>
<circle cx="22.9612" cy="96.9944" r="2.45556" fill="#38357E"/>
<circle cx="36.4667" cy="83.4888" r="2.45556" fill="#38357E"/>
<circle cx="36.4667" cy="110.5" r="2.45556" fill="#38357E"/>
<circle cx="9.45555" cy="110.5" r="2.45556" fill="#38357E"/>
<circle cx="36.4667" cy="83.489" r="2.45556" fill="#38357E"/>
<circle cx="49.9723" cy="96.9944" r="2.45556" fill="#38357E"/>
<circle cx="63.4778" cy="83.4888" r="2.45556" fill="#38357E"/>
<circle cx="63.4778" cy="110.5" r="2.45556" fill="#38357E"/>
<circle cx="36.4667" cy="110.5" r="2.45556" fill="#38357E"/>
<circle cx="63.4778" cy="83.489" r="2.45556" fill="#38357E"/>
<circle cx="76.9834" cy="96.9944" r="2.45556" fill="#38357E"/>
<circle cx="90.4889" cy="83.4888" r="2.45556" fill="#38357E"/>
<circle cx="90.4889" cy="110.5" r="2.45556" fill="#38357E"/>
<circle cx="63.4778" cy="110.5" r="2.45556" fill="#38357E"/>
<circle cx="90.4889" cy="83.489" r="2.45556" fill="#38357E"/>
<circle cx="103.994" cy="96.9944" r="2.45556" fill="#38357E"/>
<circle cx="117.5" cy="83.4888" r="2.45556" fill="#38357E"/>
<circle cx="117.5" cy="110.5" r="2.45556" fill="#38357E"/>
<circle cx="90.4889" cy="110.5" r="2.45556" fill="#38357E"/>
<circle cx="117.5" cy="83.489" r="2.45556" fill="#38357E"/>
<circle cx="131.006" cy="96.9944" r="2.45556" fill="#38357E"/>
<circle cx="144.511" cy="83.4888" r="2.45556" fill="#38357E"/>
<circle cx="144.511" cy="110.5" r="2.45556" fill="#38357E"/>
<circle cx="117.5" cy="110.5" r="2.45556" fill="#38357E"/>
<circle cx="144.511" cy="83.489" r="2.45556" fill="#38357E"/>
<circle cx="158.017" cy="96.9944" r="2.45556" fill="#38357E"/>
<circle cx="171.522" cy="83.4888" r="2.45556" fill="#38357E"/>
<circle cx="171.522" cy="110.5" r="2.45556" fill="#38357E"/>
<circle cx="144.511" cy="110.5" r="2.45556" fill="#38357E"/>
<circle cx="171.522" cy="83.489" r="2.45556" fill="#38357E"/>
<circle cx="185.028" cy="96.9944" r="2.45556" fill="#38357E"/>
<circle cx="198.533" cy="83.4888" r="2.45556" fill="#38357E"/>
<circle cx="198.533" cy="110.5" r="2.45556" fill="#38357E"/>
<circle cx="171.522" cy="110.5" r="2.45556" fill="#38357E"/>
<circle cx="198.533" cy="83.489" r="2.45556" fill="#38357E"/>
<circle cx="212.039" cy="96.9944" r="2.45556" fill="#38357E"/>
<circle cx="225.544" cy="83.4888" r="2.45556" fill="#38357E"/>
<circle cx="225.544" cy="110.5" r="2.45556" fill="#38357E"/>
<circle cx="198.533" cy="110.5" r="2.45556" fill="#38357E"/>
<circle cx="9.45555" cy="110.5" r="2.45556" fill="#38357E"/>
<circle cx="9.45555" cy="137.511" r="2.45556" fill="#38357E"/>
<circle cx="9.45568" cy="110.5" r="2.45556" fill="#38357E"/>
<circle cx="22.9612" cy="124.006" r="2.45556" fill="#38357E"/>
<circle cx="36.4667" cy="110.5" r="2.45556" fill="#38357E"/>
<circle cx="36.4667" cy="137.511" r="2.45556" fill="#38357E"/>
<circle cx="9.45555" cy="137.511" r="2.45556" fill="#38357E"/>
<circle cx="36.4667" cy="110.5" r="2.45556" fill="#38357E"/>
<circle cx="49.9723" cy="124.006" r="2.45556" fill="#38357E"/>
<circle cx="63.4778" cy="110.5" r="2.45556" fill="#38357E"/>
<circle cx="63.4778" cy="137.511" r="2.45556" fill="#38357E"/>
<circle cx="36.4667" cy="137.511" r="2.45556" fill="#38357E"/>
<circle cx="63.4778" cy="110.5" r="2.45556" fill="#38357E"/>
<circle cx="76.9834" cy="124.006" r="2.45556" fill="#38357E"/>
<circle cx="90.4889" cy="110.5" r="2.45556" fill="#38357E"/>
<circle cx="90.4889" cy="137.511" r="2.45556" fill="#38357E"/>
<circle cx="63.4778" cy="137.511" r="2.45556" fill="#38357E"/>
<circle cx="90.4889" cy="110.5" r="2.45556" fill="#38357E"/>
<circle cx="103.994" cy="124.006" r="2.45556" fill="#38357E"/>
<circle cx="117.5" cy="110.5" r="2.45556" fill="#38357E"/>
<circle cx="117.5" cy="137.511" r="2.45556" fill="#38357E"/>
<circle cx="90.4889" cy="137.511" r="2.45556" fill="#38357E"/>
<circle cx="117.5" cy="110.5" r="2.45556" fill="#38357E"/>
<circle cx="131.006" cy="124.006" r="2.45556" fill="#38357E"/>
<circle cx="144.511" cy="110.5" r="2.45556" fill="#38357E"/>
<circle cx="144.511" cy="137.511" r="2.45556" fill="#38357E"/>
<circle cx="117.5" cy="137.511" r="2.45556" fill="#38357E"/>
<circle cx="144.511" cy="110.5" r="2.45556" fill="#38357E"/>
<circle cx="158.017" cy="124.006" r="2.45556" fill="#38357E"/>
<circle cx="171.522" cy="110.5" r="2.45556" fill="#38357E"/>
<circle cx="171.522" cy="137.511" r="2.45556" fill="#38357E"/>
<circle cx="144.511" cy="137.511" r="2.45556" fill="#38357E"/>
<circle cx="171.522" cy="110.5" r="2.45556" fill="#38357E"/>
<circle cx="185.028" cy="124.006" r="2.45556" fill="#38357E"/>
<circle cx="198.533" cy="110.5" r="2.45556" fill="#38357E"/>
<circle cx="198.533" cy="137.511" r="2.45556" fill="#38357E"/>
<circle cx="171.522" cy="137.511" r="2.45556" fill="#38357E"/>
<circle cx="198.533" cy="110.5" r="2.45556" fill="#38357E"/>
<circle cx="212.039" cy="124.006" r="2.45556" fill="#38357E"/>
<circle cx="225.544" cy="110.5" r="2.45556" fill="#38357E"/>
<circle cx="225.544" cy="137.511" r="2.45556" fill="#38357E"/>
<circle cx="198.533" cy="137.511" r="2.45556" fill="#38357E"/>
<circle cx="9.45555" cy="137.511" r="2.45556" fill="#38357E"/>
<circle cx="9.45555" cy="164.522" r="2.45556" fill="#38357E"/>
<circle cx="9.45555" cy="137.511" r="2.45556" fill="#38357E"/>
<circle cx="22.9612" cy="151.017" r="2.45556" fill="#38357E"/>
<circle cx="36.4667" cy="137.511" r="2.45556" fill="#38357E"/>
<circle cx="36.4667" cy="164.522" r="2.45556" fill="#38357E"/>
<circle cx="9.45555" cy="164.522" r="2.45556" fill="#38357E"/>
<circle cx="36.4667" cy="137.511" r="2.45556" fill="#38357E"/>
<circle cx="49.9723" cy="151.017" r="2.45556" fill="#38357E"/>
<circle cx="63.4778" cy="137.511" r="2.45556" fill="#38357E"/>
<circle cx="63.4778" cy="164.522" r="2.45556" fill="#38357E"/>
<circle cx="36.4667" cy="164.522" r="2.45556" fill="#38357E"/>
<circle cx="63.4778" cy="137.511" r="2.45556" fill="#38357E"/>
<circle cx="76.9834" cy="151.017" r="2.45556" fill="#38357E"/>
<circle cx="90.4889" cy="137.511" r="2.45556" fill="#38357E"/>
<circle cx="90.4889" cy="164.522" r="2.45556" fill="#38357E"/>
<circle cx="63.4778" cy="164.522" r="2.45556" fill="#38357E"/>
<circle cx="90.4889" cy="137.511" r="2.45556" fill="#38357E"/>
<circle cx="103.994" cy="151.017" r="2.45556" fill="#38357E"/>
<circle cx="117.5" cy="137.511" r="2.45556" fill="#38357E"/>
<circle cx="117.5" cy="164.522" r="2.45556" fill="#38357E"/>
<circle cx="90.4889" cy="164.522" r="2.45556" fill="#38357E"/>
<circle cx="117.5" cy="137.511" r="2.45556" fill="#38357E"/>
<circle cx="131.006" cy="151.017" r="2.45556" fill="#38357E"/>
<circle cx="144.511" cy="137.511" r="2.45556" fill="#38357E"/>
<circle cx="144.511" cy="164.522" r="2.45556" fill="#38357E"/>
<circle cx="117.5" cy="164.522" r="2.45556" fill="#38357E"/>
<circle cx="144.511" cy="137.511" r="2.45556" fill="#38357E"/>
<circle cx="158.017" cy="151.017" r="2.45556" fill="#38357E"/>
<circle cx="171.522" cy="137.511" r="2.45556" fill="#38357E"/>
<circle cx="171.522" cy="164.522" r="2.45556" fill="#38357E"/>
<circle cx="144.511" cy="164.522" r="2.45556" fill="#38357E"/>
<circle cx="171.522" cy="137.511" r="2.45556" fill="#38357E"/>
<circle cx="185.028" cy="151.017" r="2.45556" fill="#38357E"/>
<circle cx="198.533" cy="137.511" r="2.45556" fill="#38357E"/>
<circle cx="198.533" cy="164.522" r="2.45556" fill="#38357E"/>
<circle cx="171.522" cy="164.522" r="2.45556" fill="#38357E"/>
<circle cx="198.533" cy="137.511" r="2.45556" fill="#38357E"/>
<circle cx="212.039" cy="151.017" r="2.45556" fill="#38357E"/>
<circle cx="225.544" cy="137.511" r="2.45556" fill="#38357E"/>
<circle cx="225.544" cy="164.522" r="2.45556" fill="#38357E"/>
<circle cx="198.533" cy="164.522" r="2.45556" fill="#38357E"/>
<circle cx="9.45555" cy="164.522" r="2.45556" fill="#38357E"/>
<circle cx="9.45568" cy="164.522" r="2.45556" fill="#38357E"/>
<circle cx="22.9612" cy="178.028" r="2.45556" fill="#38357E"/>
<circle cx="36.4667" cy="164.522" r="2.45556" fill="#38357E"/>
<circle cx="36.4667" cy="164.522" r="2.45556" fill="#38357E"/>
<circle cx="49.9723" cy="178.028" r="2.45556" fill="#38357E"/>
<circle cx="63.4778" cy="164.522" r="2.45556" fill="#38357E"/>
<circle cx="63.4779" cy="164.522" r="2.45556" fill="#38357E"/>
<circle cx="76.9834" cy="178.028" r="2.45556" fill="#38357E"/>
<circle cx="90.4889" cy="164.522" r="2.45556" fill="#38357E"/>
<circle cx="90.489" cy="164.522" r="2.45556" fill="#38357E"/>
<circle cx="103.994" cy="178.028" r="2.45556" fill="#38357E"/>
<circle cx="117.5" cy="164.522" r="2.45556" fill="#38357E"/>
<circle cx="117.5" cy="164.522" r="2.45556" fill="#38357E"/>
<circle cx="131.005" cy="178.028" r="2.45556" fill="#38357E"/>
<circle cx="144.511" cy="164.522" r="2.45556" fill="#38357E"/>
<circle cx="144.511" cy="164.522" r="2.45556" fill="#38357E"/>
<circle cx="158.017" cy="178.028" r="2.45556" fill="#38357E"/>
<circle cx="171.522" cy="164.522" r="2.45556" fill="#38357E"/>
<circle cx="171.522" cy="164.522" r="2.45556" fill="#38357E"/>
<circle cx="185.028" cy="178.028" r="2.45556" fill="#38357E"/>
<circle cx="198.533" cy="164.522" r="2.45556" fill="#38357E"/>
<circle cx="198.533" cy="164.522" r="2.45556" fill="#38357E"/>
<circle cx="212.039" cy="178.028" r="2.45556" fill="#38357E"/>
<circle cx="225.544" cy="164.522" r="2.45556" fill="#38357E"/>
</g>
</svg>
