<svg width="133" height="21" viewBox="0 0 133 21" fill="none" xmlns="http://www.w3.org/2000/svg">
<path d="M8.29688 12.3516H3.79688V17H1.45312V5.625H8.85938V7.52344H3.79688V10.4609H8.29688V12.3516ZM9.54688 12.6953C9.54688 11.8568 9.70833 11.1094 10.0312 10.4531C10.3542 9.79688 10.8177 9.28906 11.4219 8.92969C12.0312 8.57031 12.737 8.39062 13.5391 8.39062C14.6797 8.39062 15.6094 8.73958 16.3281 9.4375C17.0521 10.1354 17.4557 11.0833 17.5391 12.2812L17.5547 12.8594C17.5547 14.1562 17.1927 15.1979 16.4688 15.9844C15.7448 16.7656 14.7734 17.1562 13.5547 17.1562C12.3359 17.1562 11.362 16.7656 10.6328 15.9844C9.90885 15.2031 9.54688 14.1406 9.54688 12.7969V12.6953ZM11.8047 12.8594C11.8047 13.6615 11.9557 14.276 12.2578 14.7031C12.5599 15.125 12.9922 15.3359 13.5547 15.3359C14.1016 15.3359 14.5286 15.1276 14.8359 14.7109C15.1432 14.2891 15.2969 13.6172 15.2969 12.6953C15.2969 11.9089 15.1432 11.2995 14.8359 10.8672C14.5286 10.4349 14.0964 10.2188 13.5391 10.2188C12.987 10.2188 12.5599 10.4349 12.2578 10.8672C11.9557 11.2943 11.8047 11.9583 11.8047 12.8594ZM21.3281 17H19.0625V5H21.3281V17ZM25.5781 17H23.3125V5H25.5781V17ZM27.0938 12.6953C27.0938 11.8568 27.2552 11.1094 27.5781 10.4531C27.901 9.79688 28.3646 9.28906 28.9688 8.92969C29.5781 8.57031 30.2839 8.39062 31.0859 8.39062C32.2266 8.39062 33.1562 8.73958 33.875 9.4375C34.599 10.1354 35.0026 11.0833 35.0859 12.2812L35.1016 12.8594C35.1016 14.1562 34.7396 15.1979 34.0156 15.9844C33.2917 16.7656 32.3203 17.1562 31.1016 17.1562C29.8828 17.1562 28.9089 16.7656 28.1797 15.9844C27.4557 15.2031 27.0938 14.1406 27.0938 12.7969V12.6953ZM29.3516 12.8594C29.3516 13.6615 29.5026 14.276 29.8047 14.7031C30.1068 15.125 30.5391 15.3359 31.1016 15.3359C31.6484 15.3359 32.0755 15.1276 32.3828 14.7109C32.6901 14.2891 32.8438 13.6172 32.8438 12.6953C32.8438 11.9089 32.6901 11.2995 32.3828 10.8672C32.0755 10.4349 31.6432 10.2188 31.0859 10.2188C30.5339 10.2188 30.1068 10.4349 29.8047 10.8672C29.5026 11.2943 29.3516 11.9583 29.3516 12.8594ZM43.8438 13.9297L44.9531 8.54688H47.1328L44.9766 17H43.0859L41.4844 11.6797L39.8828 17H38L35.8438 8.54688H38.0234L39.125 13.9219L40.6719 8.54688H42.3047L43.8438 13.9297ZM57.3047 16.1406C56.7474 16.8177 55.9766 17.1562 54.9922 17.1562C54.0859 17.1562 53.3932 16.8958 52.9141 16.375C52.4401 15.8542 52.1979 15.0911 52.1875 14.0859V8.54688H54.4453V14.0078C54.4453 14.888 54.8464 15.3281 55.6484 15.3281C56.4141 15.3281 56.9401 15.0625 57.2266 14.5312V8.54688H59.4922V17H57.3672L57.3047 16.1406ZM65.7734 14.6641C65.7734 14.388 65.6354 14.1719 65.3594 14.0156C65.0885 13.8542 64.651 13.7109 64.0469 13.5859C62.0365 13.1641 61.0312 12.3099 61.0312 11.0234C61.0312 10.2734 61.3411 9.64844 61.9609 9.14844C62.5859 8.64323 63.401 8.39062 64.4062 8.39062C65.4792 8.39062 66.3359 8.64323 66.9766 9.14844C67.6224 9.65365 67.9453 10.3099 67.9453 11.1172H65.6875C65.6875 10.7943 65.5833 10.5286 65.375 10.3203C65.1667 10.1068 64.8411 10 64.3984 10C64.0182 10 63.724 10.0859 63.5156 10.2578C63.3073 10.4297 63.2031 10.6484 63.2031 10.9141C63.2031 11.1641 63.3203 11.3672 63.5547 11.5234C63.7943 11.6745 64.1953 11.8073 64.7578 11.9219C65.3203 12.0312 65.7943 12.1562 66.1797 12.2969C67.3724 12.7344 67.9688 13.4922 67.9688 14.5703C67.9688 15.3411 67.638 15.9661 66.9766 16.4453C66.3151 16.9193 65.4609 17.1562 64.4141 17.1562C63.7057 17.1562 63.0755 17.0312 62.5234 16.7812C61.9766 16.526 61.5469 16.1797 61.2344 15.7422C60.9219 15.2995 60.7656 14.8229 60.7656 14.3125H62.9062C62.9271 14.7135 63.0755 15.0208 63.3516 15.2344C63.6276 15.4479 63.9974 15.5547 64.4609 15.5547C64.8932 15.5547 65.2188 15.474 65.4375 15.3125C65.6615 15.1458 65.7734 14.9297 65.7734 14.6641Z" fill="#000000"/>
<path d="M87.8891 1.01587C86.5142 1.01587 85.6152 1.91869 85.6152 3.10533C85.6152 4.26576 86.4874 5.19434 87.8363 5.19434H87.8624C89.2642 5.19434 90.1366 4.26576 90.1366 3.10533C90.1104 1.91869 89.2642 1.01587 87.8891 1.01587Z" fill="#000000"/>
<path d="M85.8528 6.84521H89.8722V18.9377H85.8528V6.84521Z" fill="#000000"/>
<path d="M99.738 6.56128C97.5696 6.56128 96.1157 8.59879 96.1157 8.59879V6.84509H92.0962V18.9376H96.1154V12.1847C96.1154 11.8232 96.1416 11.4622 96.2478 11.2037C96.5384 10.4818 97.1997 9.73393 98.3101 9.73393C99.7645 9.73393 100.346 10.8429 100.346 12.4685V18.9376H104.365V12.004C104.365 8.28968 102.382 6.56128 99.738 6.56128Z" fill="#000000"/>
<path d="M119.516 18.509C126.591 18.509 130.461 12.6469 130.461 7.56368C130.461 7.39719 130.457 7.23138 130.45 7.0665C131.201 6.52344 131.854 5.84578 132.369 5.07443C131.68 5.38093 130.938 5.58698 130.16 5.6802C130.954 5.20377 131.564 4.45042 131.851 3.55237C131.108 3.99302 130.285 4.31317 129.409 4.48608C128.707 3.73835 127.707 3.27075 126.601 3.27075C124.476 3.27075 122.753 4.99347 122.753 7.11706C122.753 7.41909 122.787 7.71263 122.853 7.99425C119.656 7.83337 116.821 6.30271 114.924 3.97502C114.593 4.54341 114.403 5.20388 114.403 5.90861C114.403 7.24308 115.082 8.42149 116.115 9.11062C115.484 9.09124 114.891 8.91799 114.372 8.6296C114.372 8.64577 114.372 8.66148 114.372 8.67868C114.372 10.5418 115.698 12.0973 117.458 12.4498C117.135 12.5377 116.795 12.5851 116.444 12.5851C116.196 12.5851 115.955 12.5608 115.721 12.5157C116.211 14.0442 117.631 15.1564 119.314 15.1876C117.998 16.2196 116.339 16.8343 114.537 16.8343C114.226 16.8343 113.92 16.8165 113.619 16.781C115.321 17.8723 117.343 18.5091 119.516 18.5091" fill="#000000"/>
</svg>
