<svg width="84" height="21" viewBox="0 0 84 21" fill="none" xmlns="http://www.w3.org/2000/svg">
<path d="M12.3298 0L7.3979 9.49933V14.903H4.95338V9.49933L0 0H2.72328L6.17564 7.31213L9.62799 0H12.3298Z" fill="white"/>
<path d="M13.4549 8.94181C13.4549 7.75529 13.698 6.70457 14.184 5.78966C14.6843 4.87475 15.3562 4.16713 16.1997 3.66679C17.0574 3.15215 18.0009 2.89483 19.0302 2.89483C19.9594 2.89483 20.7671 3.08067 21.4532 3.45235C22.1537 3.80974 22.7112 4.26005 23.1258 4.80327V3.08782H25.5918V14.903H23.1258V13.1447C22.7112 13.7022 22.1466 14.1668 21.4318 14.5385C20.717 14.9102 19.9022 15.096 18.9873 15.096C17.9723 15.096 17.0431 14.8387 16.1997 14.324C15.3562 13.7951 14.6843 13.066 14.184 12.1368C13.698 11.1933 13.4549 10.1283 13.4549 8.94181ZM23.1258 8.98469C23.1258 8.16985 22.9543 7.46223 22.6112 6.86182C22.2824 6.26141 21.8464 5.80396 21.3031 5.48946C20.7599 5.17496 20.1738 5.01771 19.5448 5.01771C18.9158 5.01771 18.3297 5.17496 17.7865 5.48946C17.2432 5.78966 16.8001 6.23997 16.457 6.84038C16.1282 7.42649 15.9638 8.12697 15.9638 8.94181C15.9638 9.75665 16.1282 10.4714 16.457 11.0861C16.8001 11.7008 17.2432 12.1726 17.7865 12.5014C18.344 12.8159 18.9301 12.9731 19.5448 12.9731C20.1738 12.9731 20.7599 12.8159 21.3031 12.5014C21.8464 12.1869 22.2824 11.7294 22.6112 11.129C22.9543 10.5143 23.1258 9.79954 23.1258 8.98469Z" fill="white"/>
<path d="M43.1052 2.89483C44.0344 2.89483 44.8635 3.08782 45.5926 3.4738C46.3359 3.85977 46.9149 4.43159 47.3295 5.18925C47.7583 5.94691 47.9728 6.86182 47.9728 7.93398V14.903H45.5497V8.29851C45.5497 7.24065 45.2852 6.43296 44.7563 5.87543C44.2274 5.30362 43.5054 5.01771 42.5905 5.01771C41.6756 5.01771 40.9465 5.30362 40.4033 5.87543C39.8744 6.43296 39.6099 7.24065 39.6099 8.29851V14.903H37.1868V8.29851C37.1868 7.24065 36.9224 6.43296 36.3934 5.87543C35.8645 5.30362 35.1426 5.01771 34.2277 5.01771C33.3128 5.01771 32.5837 5.30362 32.0405 5.87543C31.5115 6.43296 31.2471 7.24065 31.2471 8.29851V14.903H28.8026V3.08782H31.2471V4.43874C31.6474 3.95269 32.1548 3.57387 32.7695 3.30225C33.3843 3.03064 34.0418 2.89483 34.7423 2.89483C35.6858 2.89483 36.5293 3.09497 37.2726 3.49524C38.016 3.89551 38.5878 4.47448 38.9881 5.23214C39.3455 4.51736 39.903 3.95269 40.6606 3.53813C41.4183 3.10926 42.2331 2.89483 43.1052 2.89483Z" fill="white"/>
<path d="M65.386 2.89483C66.3152 2.89483 67.1443 3.08782 67.8734 3.4738C68.6168 3.85977 69.1957 4.43159 69.6103 5.18925C70.0391 5.94691 70.2536 6.86182 70.2536 7.93398V14.903H67.8305V8.29851C67.8305 7.24065 67.566 6.43296 67.0371 5.87543C66.5082 5.30362 65.7862 5.01771 64.8713 5.01771C63.9564 5.01771 63.2274 5.30362 62.6841 5.87543C62.1552 6.43296 61.8907 7.24065 61.8907 8.29851V14.903H59.4677V8.29851C59.4677 7.24065 59.2032 6.43296 58.6743 5.87543C58.1453 5.30362 57.4234 5.01771 56.5085 5.01771C55.5936 5.01771 54.8645 5.30362 54.3213 5.87543C53.7924 6.43296 53.5279 7.24065 53.5279 8.29851V14.903H51.0834V3.08782H53.5279V4.43874C53.9282 3.95269 54.4357 3.57387 55.0504 3.30225C55.6651 3.03064 56.3227 2.89483 57.0231 2.89483C57.9666 2.89483 58.8101 3.09497 59.5534 3.49524C60.2968 3.89551 60.8686 4.47448 61.2689 5.23214C61.6263 4.51736 62.1838 3.95269 62.9414 3.53813C63.6991 3.10926 64.5139 2.89483 65.386 2.89483Z" fill="white"/>
<path d="M84 3.08782L76.7522 20.4568H74.2219L76.6235 14.71L71.9704 3.08782H74.6937L78.0174 12.094L81.4697 3.08782H84Z" fill="white"/>
</svg>
