<svg width="20" height="20" viewBox="0 0 20 20" fill="none" xmlns="http://www.w3.org/2000/svg">
<path d="M2.88906 1.01587C1.51417 1.01587 0.615234 1.91869 0.615234 3.10533C0.615234 4.26576 1.48739 5.19434 2.8363 5.19434H2.8624C4.26418 5.19434 5.13657 4.26576 5.13657 3.10533C5.11036 1.91869 4.26418 1.01587 2.88906 1.01587Z" fill="white"/>
<path d="M0.852814 6.84521H4.87221V18.9377H0.852814V6.84521Z" fill="white"/>
<path d="M14.738 6.56128C12.5696 6.56128 11.1157 8.59879 11.1157 8.59879V6.84509H7.09616V18.9376H11.1154V12.1847C11.1154 11.8232 11.1416 11.4622 11.2478 11.2037C11.5384 10.4818 12.1997 9.73393 13.3101 9.73393C14.7645 9.73393 15.3462 10.8429 15.3462 12.4685V18.9376H19.3653V12.004C19.3653 8.28968 17.3822 6.56128 14.738 6.56128Z" fill="white"/>
</svg>
