<svg width="18" height="9" viewBox="0 0 18 9" fill="none" xmlns="http://www.w3.org/2000/svg">
<path d="M0.703241 3.65622H15.5938L13.1272 1.20149C12.8519 0.927553 12.8509 0.482373 13.1248 0.207137C13.3987 -0.0681348 13.844 -0.0691541 14.1192 0.204746L17.7931 3.86097C17.7934 3.86118 17.7936 3.86143 17.7938 3.86164C18.0683 4.13557 18.0692 4.58219 17.7938 4.85704C17.7936 4.85725 17.7934 4.8575 17.7932 4.85771L14.1193 8.51393C13.8441 8.7878 13.3988 8.78685 13.1249 8.51154C12.8509 8.23631 12.852 7.79113 13.1272 7.51719L15.5938 5.06246H0.703241C0.314909 5.06246 0.00012207 4.74767 0.00012207 4.35934C0.00012207 3.97101 0.314909 3.65622 0.703241 3.65622Z" fill="#14121E"/>
</svg>
