<svg width="42" height="42" viewBox="0 0 42 42" fill="none" xmlns="http://www.w3.org/2000/svg">
<circle cx="21" cy="21" r="21" fill="white"/>
<path d="M15.255 20.3783H26.227L24.4095 18.5695C24.2067 18.3677 24.2059 18.0396 24.4077 17.8368C24.6096 17.634 24.9376 17.6332 25.1405 17.8351L27.8476 20.5291C27.8477 20.5293 27.8479 20.5295 27.848 20.5296C28.0503 20.7315 28.051 21.0606 27.8481 21.2631C27.8479 21.2632 27.8478 21.2634 27.8476 21.2636L25.1405 23.9576C24.9377 24.1594 24.6097 24.1587 24.4078 23.9559C24.206 23.7531 24.2067 23.425 24.4095 23.2232L26.227 21.4144H15.255C14.9689 21.4144 14.7369 21.1825 14.7369 20.8963C14.7369 20.6102 14.9689 20.3783 15.255 20.3783Z" fill="#14121E"/>
</svg>
