<svg width="20" height="20" viewBox="0 0 20 20" fill="none" xmlns="http://www.w3.org/2000/svg">
<path d="M6.51564 17.509C13.5915 17.509 17.461 11.6469 17.461 6.56368C17.461 6.39719 17.4575 6.23138 17.4501 6.0665C18.2011 5.52344 18.8539 4.84578 19.369 4.07443C18.6797 4.38093 17.9378 4.58698 17.1598 4.6802C17.954 4.20377 18.5638 3.45042 18.8514 2.55237C18.1081 2.99302 17.2849 3.31317 16.4087 3.48608C15.7067 2.73835 14.7072 2.27075 13.6005 2.27075C11.4763 2.27075 9.75343 3.99347 9.75343 6.11706C9.75343 6.41909 9.78725 6.71263 9.85319 6.99425C6.65599 6.83337 3.82079 5.30271 1.92367 2.97502C1.59343 3.54341 1.40286 4.20388 1.40286 4.90861C1.40286 6.24308 2.08202 7.42149 3.11469 8.11062C2.48357 8.09124 1.89076 7.91799 1.37247 7.6296C1.3719 7.64577 1.3719 7.66148 1.3719 7.67868C1.3719 9.54175 2.69788 11.0973 4.45833 11.4498C4.13497 11.5377 3.79476 11.5851 3.44389 11.5851C3.19644 11.5851 2.95519 11.5608 2.72081 11.5157C3.21055 13.0442 4.63078 14.1564 6.31452 14.1876C4.99783 15.2196 3.3392 15.8343 1.53656 15.8343C1.2265 15.8343 0.920006 15.8165 0.618896 15.781C2.32144 16.8723 4.34309 17.5091 6.51576 17.5091" fill="#24B6FF"/>
</svg>
