<svg width="20" height="20" viewBox="0 0 20 20" fill="none" xmlns="http://www.w3.org/2000/svg">
<path d="M6.51561 17.509C13.5915 17.509 17.4609 11.6469 17.4609 6.56368C17.4609 6.39719 17.4575 6.23138 17.45 6.0665C18.2011 5.52344 18.8539 4.84578 19.3689 4.07443C18.6797 4.38093 17.9378 4.58698 17.1598 4.6802C17.954 4.20377 18.5638 3.45042 18.8513 2.55237C18.1081 2.99302 17.2849 3.31317 16.4086 3.48608C15.7067 2.73835 14.7071 2.27075 13.6005 2.27075C11.4762 2.27075 9.7534 3.99347 9.7534 6.11706C9.7534 6.41909 9.78722 6.71263 9.85316 6.99425C6.65596 6.83337 3.82076 5.30271 1.92364 2.97502C1.5934 3.54341 1.40283 4.20388 1.40283 4.90861C1.40283 6.24308 2.08199 7.42149 3.11466 8.11062C2.48354 8.09124 1.89073 7.91799 1.37244 7.6296C1.37187 7.64577 1.37187 7.66148 1.37187 7.67868C1.37187 9.54175 2.69785 11.0973 4.4583 11.4498C4.13494 11.5377 3.79473 11.5851 3.44386 11.5851C3.19641 11.5851 2.95516 11.5608 2.72078 11.5157C3.21052 13.0442 4.63075 14.1564 6.31449 14.1876C4.99779 15.2196 3.33917 15.8343 1.53653 15.8343C1.22647 15.8343 0.919975 15.8165 0.618866 15.781C2.32141 16.8723 4.34306 17.5091 6.51573 17.5091" fill="white"/>
</svg>
