<svg width="140" height="140" viewBox="0 0 140 140" fill="none" xmlns="http://www.w3.org/2000/svg">
<g clip-path="url(#clip0)">
<path d="M6.69136 1.19016L132.219 126.725V35.0403C132.219 32.8934 133.959 31.1529 136.106 31.1529C138.253 31.1529 139.993 32.8934 139.993 35.0403V136.109C139.993 138.256 138.253 139.996 136.106 139.996H35.0371C32.8903 139.996 31.1497 138.256 31.1497 136.109C31.1497 133.962 32.8903 132.222 35.0371 132.222H126.722L1.18701 6.69452C-0.357086 5.20291 -0.399719 2.74227 1.09152 1.19781C2.58315 -0.346279 5.04376 -0.388917 6.58823 1.10233C6.62065 1.13367 6.65236 1.16538 6.6837 1.19781L6.69136 1.19016Z" fill="#FFC107"/>
<path d="M35.0371 139.996H136.106C138.253 139.996 139.993 138.256 139.993 136.109V35.0403C139.993 32.8935 138.253 31.153 136.106 31.153C133.959 31.153 132.218 32.8935 132.218 35.0403V132.222H35.0368C32.8899 132.222 31.1494 133.962 31.1494 136.109C31.1497 138.256 32.8902 139.996 35.0371 139.996Z" fill="#A3AEB9"/>
<path d="M136.106 139.996C138.253 140 139.996 138.263 140 136.116C140.002 135.081 139.591 134.088 138.858 133.357L6.69135 1.19025C5.19972 -0.353847 2.73909 -0.396486 1.19463 1.09476C-0.349457 2.58638 -0.39209 5.04701 1.09915 6.59147C1.13049 6.62391 1.1622 6.65561 1.19463 6.68695L133.362 138.854C134.089 139.583 135.076 139.994 136.106 139.996Z" fill="#A3AEB9"/>
</g>
<defs>
<clipPath id="clip0">
<rect width="140" height="140" fill="white" transform="matrix(-1 0 0 1 140 0)"/>
</clipPath>
</defs>
</svg>
